<?xml version="1.0" encoding="utf-8"?><svg xmlns="http://www.w3.org/2000/svg" xmlns:xlink="http://www.w3.org/1999/xlink" width="2560" height="1272" preserveAspectRatio="xMidYMid" viewBox="0 0 2560 1272" style="z-index:1;margin-right:-2px;display:block;background-repeat-y:initial;background-repeat-x:initial;background-color:rgb(0, 124, 197);animation-play-state:paused" ><g transform="translate(1280,636) scale(1,1) translate(-1280,-636)" style="transform:matrix(1, 0, 0, 1, 0, 0);animation-play-state:paused" ><defs style="animation-play-state:paused" ><filter id="blur-869ieard9rv-1" x="-1" y="-1" width="3" height="3" style="animation-play-state:paused" ><feGaussianBlur stdDeviation="3" style="animation-play-state:paused" ></feGaussianBlur></filter>
<filter id="blur-869ieard9rv-2" x="-1" y="-1" width="3" height="3" style="animation-play-state:paused" ><feGaussianBlur stdDeviation="1.5" style="animation-play-state:paused" ></feGaussianBlur></filter>
<filter id="blur-869ieard9rv-3" x="-1" y="-1" width="3" height="3" style="animation-play-state:paused" ><feGaussianBlur stdDeviation="1" style="animation-play-state:paused" ></feGaussianBlur></filter></defs>
<circle cx="583.2223013481456" cy="0" transform="matrix(1,0,0,1,0,692.6036987304688)" r="11.979399349387212" fill="#ddeeff" opacity="0.63" style="transform:matrix(1, 0, 0, 1, 0, 692.604);opacity:0.63;animation-play-state:paused" ></circle>
<circle cx="2237.555303100458" cy="0" transform="matrix(1,0,0,1,0,977.1085815429688)" r="12.240365580028996" fill="#aabbcc" opacity="0.7200000000000001" style="transform:matrix(1, 0, 0, 1, 0, 977.109);opacity:0.72;animation-play-state:paused" ></circle>
<circle cx="2002.5522154259022" cy="0" transform="matrix(1,0,0,1,0,714.4922485351562)" r="8.891999433468943" fill="#bbddff" opacity="0.63" style="transform:matrix(1, 0, 0, 1, 0, 714.492);opacity:0.63;animation-play-state:paused" ></circle>
<circle cx="1585.0088910555519" cy="0" transform="matrix(1,0,0,1,0,1267.02197265625)" r="5.564663845352363" fill="#aabbcc" opacity="0.36000000000000004" style="transform:matrix(1, 0, 0, 1, 0, 1267.02);opacity:0.36;animation-play-state:paused" ></circle>
<circle cx="1439.662300821434" cy="0" transform="matrix(1,0,0,1,0,760.8430786132812)" r="5.827350076770698" fill="#aabbcc" opacity="0.36000000000000004" style="transform:matrix(1, 0, 0, 1, 0, 760.843);opacity:0.36;animation-play-state:paused" ></circle>
<circle cx="2227.156979324738" cy="0" transform="matrix(1,0,0,1,0,990.103515625)" r="5.966763478068094" fill="#ddeeff" opacity="0.36000000000000004" style="transform:matrix(1, 0, 0, 1, 0, 990.104);opacity:0.36;animation-play-state:paused" ></circle>
<circle cx="2489.5357866178842" cy="0" transform="matrix(1,0,0,1,0,1007.9559326171875)" r="6.182526219900928" fill="#aabbcc" opacity="0.36000000000000004" style="transform:matrix(1, 0, 0, 1, 0, 1007.96);opacity:0.36;animation-play-state:paused" ></circle>
<circle cx="2222.8248062984458" cy="0" transform="matrix(1,0,0,1,0,1238.282470703125)" r="12.256019609328032" fill="#ddeeff" opacity="0.7200000000000001" style="transform:matrix(1, 0, 0, 1, 0, 1238.28);opacity:0.72;animation-play-state:paused" ></circle>
<circle cx="1211.1994555410938" cy="0" transform="matrix(1,0,0,1,0,658.8080444335938)" r="7.64480861391973" fill="#aabbcc" opacity="0.36000000000000004" style="transform:matrix(1, 0, 0, 1, 0, 658.808);opacity:0.36;animation-play-state:paused" ></circle>
<circle cx="914.8643702617403" cy="0" transform="matrix(1,0,0,1,0,1021.01123046875)" r="12.261368535186552" fill="#bbddff" opacity="0.7200000000000001" style="transform:matrix(1, 0, 0, 1, 0, 1021.01);opacity:0.72;animation-play-state:paused" ></circle>
<circle cx="1175.8998994468163" cy="0" transform="matrix(1,0,0,1,0,728.3179321289062)" r="11.830587788839049" fill="#ddeeff" opacity="0.63" style="transform:matrix(1, 0, 0, 1, 0, 728.318);opacity:0.63;animation-play-state:paused" ></circle>
<circle cx="2106.1778166625872" cy="0" transform="matrix(1,0,0,1,0,73.025634765625)" r="5.8377492983837405" fill="#bbddff" opacity="0.36000000000000004" style="transform:matrix(1, 0, 0, 1, 0, 73.0256);opacity:0.36;animation-play-state:paused" ></circle>
<circle cx="2448.912104350436" cy="0" transform="matrix(1,0,0,1,0,742.8096923828125)" r="4.188690615137557" fill="#aabbcc" opacity="0.36000000000000004" style="transform:matrix(1, 0, 0, 1, 0, 742.81);opacity:0.36;animation-play-state:paused" ></circle>
<circle cx="857.861931483435" cy="0" transform="matrix(1,0,0,1,0,850.083984375)" r="9.964110530141646" fill="#aabbcc" opacity="0.63" style="transform:matrix(1, 0, 0, 1, 0, 850.084);opacity:0.63;animation-play-state:paused" ></circle>
<circle cx="60.31470994313679" cy="0" transform="matrix(1,0,0,1,0,93.70263671875)" r="5.783949577314" fill="#aabbcc" opacity="0.36000000000000004" style="transform:matrix(1, 0, 0, 1, 0, 93.7026);opacity:0.36;animation-play-state:paused" ></circle></g></svg>